<svg width="28" height="28" viewBox="0 0 28 28" fill="none" xmlns="http://www.w3.org/2000/svg">
<path d="M9.09992 2.33325H18.8999C22.6333 2.33325 25.6666 5.36659 25.6666 9.09992V18.8999C25.6666 20.6946 24.9537 22.4157 23.6847 23.6847C22.4157 24.9537 20.6946 25.6666 18.8999 25.6666H9.09992C5.36659 25.6666 2.33325 22.6333 2.33325 18.8999V9.09992C2.33325 7.30529 3.04617 5.58416 4.31516 4.31516C5.58416 3.04617 7.30529 2.33325 9.09992 2.33325ZM8.86659 4.66659C7.75268 4.66659 6.68439 5.10908 5.89674 5.89674C5.10908 6.68439 4.66659 7.75268 4.66659 8.86659V19.1333C4.66659 21.4549 6.54492 23.3333 8.86659 23.3333H19.1333C20.2472 23.3333 21.3155 22.8908 22.1031 22.1031C22.8908 21.3155 23.3333 20.2472 23.3333 19.1333V8.86659C23.3333 6.54492 21.4549 4.66659 19.1333 4.66659H8.86659ZM20.1249 6.41659C20.5117 6.41659 20.8826 6.57023 21.1561 6.84372C21.4296 7.11721 21.5833 7.48814 21.5833 7.87492C21.5833 8.26169 21.4296 8.63263 21.1561 8.90612C20.8826 9.17961 20.5117 9.33325 20.1249 9.33325C19.7381 9.33325 19.3672 9.17961 19.0937 8.90612C18.8202 8.63263 18.6666 8.26169 18.6666 7.87492C18.6666 7.48814 18.8202 7.11721 19.0937 6.84372C19.3672 6.57023 19.7381 6.41659 20.1249 6.41659ZM13.9999 8.16659C15.547 8.16659 17.0307 8.78117 18.1247 9.87513C19.2187 10.9691 19.8333 12.4528 19.8333 13.9999C19.8333 15.547 19.2187 17.0307 18.1247 18.1247C17.0307 19.2187 15.547 19.8333 13.9999 19.8333C12.4528 19.8333 10.9691 19.2187 9.87513 18.1247C8.78117 17.0307 8.16659 15.547 8.16659 13.9999C8.16659 12.4528 8.78117 10.9691 9.87513 9.87513C10.9691 8.78117 12.4528 8.16659 13.9999 8.16659ZM13.9999 10.4999C13.0717 10.4999 12.1814 10.8687 11.525 11.525C10.8687 12.1814 10.4999 13.0717 10.4999 13.9999C10.4999 14.9282 10.8687 15.8184 11.525 16.4748C12.1814 17.1312 13.0717 17.4999 13.9999 17.4999C14.9282 17.4999 15.8184 17.1312 16.4748 16.4748C17.1312 15.8184 17.4999 14.9282 17.4999 13.9999C17.4999 13.0717 17.1312 12.1814 16.4748 11.525C15.8184 10.8687 14.9282 10.4999 13.9999 10.4999Z" fill="#242424"/>
</svg>
